<?xml version="1.0" encoding="UTF-8" standalone="no"?>
<!DOCTYPE svg PUBLIC "-//W3C//DTD SVG 1.1//EN" "http://www.w3.org/Graphics/SVG/1.1/DTD/svg11.dtd">
<svg width="100%" height="100%" viewBox="0 0 220 64" version="1.1" xmlns="http://www.w3.org/2000/svg" xmlns:xlink="http://www.w3.org/1999/xlink" xml:space="preserve" xmlns:serif="http://www.serif.com/" style="fill-rule:evenodd;clip-rule:evenodd;stroke-linejoin:round;stroke-miterlimit:2;">
    <path d="M5.981,18.645C7.539,18.645 8.804,24.692 8.804,32.141C8.804,39.59 7.539,45.638 5.981,45.638C4.424,45.638 3.159,39.59 3.159,32.141C3.159,24.692 4.424,18.645 5.981,18.645ZM20.269,29.742C22.069,29.77 22.371,25.128 22.528,23.018C23.228,13.605 23.9,3.067 25.302,3.067C26.86,3.067 28.125,16.031 28.125,32C28.125,47.969 26.86,60.933 25.302,60.933C23.924,60.933 23.165,46.048 22.528,38.846C22.306,36.334 22.021,33.706 20.269,33.739C18.763,33.766 18.265,36.705 18.065,38.453C17.495,43.453 16.743,52.465 15.42,52.465C13.862,52.465 12.597,43.295 12.597,32C12.597,20.705 13.862,11.535 15.42,11.535C16.743,11.535 16.784,19.321 17.679,24.435C18.072,26.68 18.433,29.712 20.269,29.742ZM41.22,33.421C39.254,33.346 38.254,38.28 38.161,40.704C37.815,49.774 36.04,54.203 34.76,54.203C33.202,54.203 32.816,44.098 32.816,32C32.816,19.902 33.202,10.079 34.76,10.079C36.19,10.079 36.708,17.062 37.438,21.829C37.964,25.264 38.501,30.312 41.22,30.477C42.814,30.574 43.275,26.797 43.311,26.216C43.62,21.139 44.729,20.29 46.048,20.29C47.606,20.29 48.871,25.537 48.871,32C48.871,38.463 47.606,43.71 46.048,43.71C44.729,43.71 44.149,41.19 43.311,36.174C42.922,33.85 42.517,33.471 41.22,33.421Z" style="fill:url(#_Linear1);"/>
    <g transform="matrix(0.764788,0,0,0.764788,11.3852,9.40179)">
        <g transform="matrix(1,0,0,1,56.132,47.058)">
            <text x="0px" y="0px" style="font-family:'ArialMT', 'Arial', sans-serif;font-size:46.488px;fill:rgb(82,110,210);">Sing</text>
        </g>
        <g transform="matrix(1,0,0,1,149.177,47.058)">
            <text x="0px" y="0px" style="font-family:'ArialMT', 'Arial', sans-serif;font-size:46.488px;">ularity</text>
        </g>
    </g>
    <defs>
        <linearGradient id="_Linear1" x1="0" y1="0" x2="1" y2="0" gradientUnits="userSpaceOnUse" gradientTransform="matrix(45.712,0,0,45.712,3.15869,32)"><stop offset="0" style="stop-color:rgb(250,8,224);stop-opacity:1"/><stop offset="1" style="stop-color:rgb(83,110,211);stop-opacity:1"/></linearGradient>
    </defs>
</svg>
